<svg width="190" height="233" viewBox="0 0 190 233" fill="none" xmlns="http://www.w3.org/2000/svg">
<g clip-path="url(#clip0_1_360)">
<path d="M136.249 146.32C133.875 145.139 131.141 144.905 128.6 145.664C126.059 146.423 123.902 148.119 122.564 150.408C121.589 152.101 120.556 153.736 119.465 155.314C117.626 158.153 115.644 160.896 113.527 163.534C109.519 168.452 103.723 171.577 97.4126 172.223C91.1018 172.868 84.793 170.981 79.873 166.977C78.6195 165.94 77.4668 164.788 76.4302 163.534C74.3645 160.952 72.3849 158.241 70.4913 155.444C60.8244 140.543 54.1314 123.912 50.7811 106.469C48.8518 96.9036 47.6292 87.2088 47.1231 77.4636C46.7949 71.2068 48.7005 65.037 52.4999 60.0551C56.2994 55.0733 61.7454 51.6036 67.8662 50.2653H68.1674C77.0377 48.3994 86.0238 47.1342 95.0645 46.4781C104.09 47.1219 113.061 48.3728 121.918 50.2222H122.177C128.297 51.5705 133.739 55.0503 137.531 60.0403C141.323 65.0303 143.217 71.2056 142.877 77.4636C142.877 79.3571 142.877 81.2937 142.489 83.3164C142.36 84.6918 142.505 86.0792 142.916 87.398C143.328 88.7168 143.998 89.9405 144.887 90.9978C145.776 92.0552 146.867 92.9251 148.095 93.5569C149.324 94.1886 150.666 94.5696 152.043 94.6777L177.52 96.7003C178.889 96.8181 180.267 96.6641 181.576 96.2469C182.885 95.8298 184.098 95.1579 185.146 94.2699C186.194 93.3819 187.056 92.2953 187.682 91.0728C188.309 89.8502 188.687 88.5159 188.795 87.1465C190.017 72.1467 189.902 57.0679 188.451 42.0885C188.116 38.5812 187.079 35.1771 185.4 32.0792C183.722 28.9813 181.437 26.253 178.682 24.0568C154.754 5.20729 111.117 0.989836 98.5073 2.40803e-05C96.1722 -0.172046 93.8276 -0.172046 91.4925 2.40654e-05C78.8832 0.989836 35.2454 5.20729 11.3178 24.0568C8.56382 26.2574 6.27724 28.9861 4.59228 32.0826C2.90733 35.1791 1.85794 38.5809 1.50572 42.0885C-1.59282 73.8486 -4.51922 177.951 83.2728 229.163C86.8979 231.276 91.0189 232.39 95.2151 232.39C99.4112 232.39 103.532 231.276 107.157 229.163C130.627 215.516 150.098 195.941 163.62 172.399C164.317 171.213 164.773 169.901 164.962 168.538C165.152 167.175 165.07 165.788 164.722 164.457C164.374 163.126 163.767 161.876 162.935 160.78C162.104 159.684 161.064 158.762 159.876 158.069L159.23 157.724L136.249 146.32Z" fill="#FDB235"/>
</g>
<defs>
<clipPath id="clip0_1_360">
<rect width="189.226" height="232.391" fill="white" transform="translate(0.386841)"/>
</clipPath>
</defs>
</svg>
