<svg width="130" height="96" viewBox="0 0 130 96" fill="none" xmlns="http://www.w3.org/2000/svg">
<g id="cnbc-blue-2.svg" clip-path="url(#clip0_1_38)">
<g id="Group 4132">
<path id="Path 10698" fill-rule="evenodd" clip-rule="evenodd" d="M23.0808 81.3689C22.593 79.0492 20.7014 78.4319 18.5807 78.2328C11.7211 77.5956 10.5064 82.7429 10.5064 84.9033C10.5064 88.6169 11.5817 91.6833 18.3219 91.6833C19.5564 91.6833 22.9912 90.409 22.9912 88.3282H32.6684C32.2802 94.5009 21.916 95.9843 17.4059 95.9843C8.0473 95.9843 0.0327322 94.2321 0.421016 85.0327C0.699783 78.4319 6.92227 73.8024 19.3374 74.0812C26.2369 74.2405 32.8576 76.4009 32.8875 81.3988L23.0808 81.3689Z" fill="#02033B"/>
<path id="Path 10699" fill-rule="evenodd" clip-rule="evenodd" d="M120.072 81.3689C119.594 79.0492 117.703 78.4319 115.582 78.2328C108.722 77.5956 107.508 82.7429 107.508 84.9033C107.508 88.6169 108.583 91.6833 115.323 91.6833C116.558 91.6833 119.982 90.409 119.982 88.3282H129.68C129.281 94.5009 118.927 95.9843 114.407 95.9843C105.049 95.9843 97.034 94.2321 97.4222 85.0327C97.701 78.4319 103.923 73.8024 116.339 74.0812C123.238 74.2405 129.859 76.4009 129.889 81.3988L120.072 81.3689Z" fill="#02033B"/>
<path id="Path 10700" fill-rule="evenodd" clip-rule="evenodd" d="M34.5601 74.4994H47.1345L57.867 89.5927H57.9467V74.4994H66.011V95.407H53.9643L42.714 80.3535H42.6244V95.4269H34.5601V74.4994Z" fill="#02033B"/>
<path id="Path 10701" fill-rule="evenodd" clip-rule="evenodd" d="M68.5 74.4994H83.7625C91.11 74.4994 95.421 76.5503 95.421 79.6566C95.421 81.4885 93.6189 83.7585 89.5868 84.4255V84.4852C94.4353 84.764 96.2274 87.8404 96.2274 89.6823C96.2274 93.3759 92.016 95.4269 83.8123 95.4269H68.5V74.4994ZM77.331 82.6235H79.8697C83.7725 82.6235 85.8433 82.3148 85.8433 80.692C85.8433 79.0692 84.1209 78.3723 80.6164 78.3723H77.3409V82.6235H77.331ZM77.331 91.0363H79.8697C84.569 91.0363 86.2913 90.5385 86.2913 88.9157C86.2913 87.2928 84.1209 86.6059 80.6065 86.6059H77.3409V91.0363H77.331Z" fill="#02033B"/>
<path id="Path 10702" fill-rule="evenodd" clip-rule="evenodd" d="M108.573 42.4113L72.582 66.4848L84.7084 37.6623L90.453 24.2515C92.7031 19.9506 97.1136 17.2027 101.962 17.0733C106.522 17.0434 110.773 19.3731 113.192 23.236C115.841 27.2184 115.99 33.6699 113.342 37.6722C112.097 39.5638 110.475 41.1767 108.583 42.4212" fill="#02033B"/>
<path id="Path 10703" fill-rule="evenodd" clip-rule="evenodd" d="M90.6521 19.6817L72.8508 61.7656L72.0942 57.1759L66.708 22.6784C66.4491 20.6872 67.3551 18.7259 69.0377 17.6208L71.5864 16.0975C71.7357 15.5699 70.989 15.3906 70.6406 15.2214L65.6626 15.1716C65.0154 8.01327 70.2921 1.69122 77.4505 1.03412C79.5512 0.844957 81.6718 1.16355 83.6132 1.97994C88.4419 4.11052 91.5979 8.83961 91.7174 14.1163C91.7174 16.0179 91.359 17.9095 90.6521 19.6717" fill="#02033B"/>
<path id="Path 10704" fill-rule="evenodd" clip-rule="evenodd" d="M56.4634 61.9149L38.9408 19.7314C37.0393 14.9924 37.8556 9.59624 41.0714 5.63376C44.337 1.8007 49.5141 0.187832 54.3826 1.47215C58.9026 2.80626 62.4071 6.39041 63.6317 10.9403C64.0399 12.6925 64.1494 14.4946 63.9503 16.2867L56.4634 61.9149Z" fill="#02033B"/>
<path id="Path 10705" fill-rule="evenodd" clip-rule="evenodd" d="M19.009 40.888C15.4845 37.9211 13.7223 33.3513 14.3496 28.7914C15.0365 23.7139 18.4912 19.4328 23.3099 17.6806C27.9693 16.1673 33.0867 17.4118 36.5315 20.8963C37.8556 22.2305 38.901 23.8234 39.6079 25.5657L56.5331 66.5545L19.009 40.888Z" fill="#02033B"/>
<path id="Path 10706" fill-rule="evenodd" clip-rule="evenodd" d="M15.156 70.8355C10.6161 70.3975 6.63366 67.6098 4.66237 63.488C2.4621 58.8186 2.97981 53.3229 6.01639 49.1414C9.28195 45.2287 13.9812 43.2574 18.77 44.2331C20.5919 44.5716 22.3342 45.2984 23.8675 46.3438L60.3064 70.8355H15.156Z" fill="#02033B"/>
<path id="Path 10707" fill-rule="evenodd" clip-rule="evenodd" d="M114.089 70.8355C118.639 70.4074 122.631 67.6098 124.582 63.478C126.783 58.8087 126.265 53.313 123.238 49.1414C119.973 45.2287 115.273 43.2574 110.475 44.2331C108.653 44.5816 106.91 45.2984 105.377 46.3438L68.9382 70.8355H114.089Z" fill="#02033B"/>
</g>
</g>
<defs>
<clipPath id="clip0_1_38">
<rect width="129.428" height="95" fill="white" transform="translate(0.411133 0.984375)"/>
</clipPath>
</defs>
</svg>
