<svg width="13" height="8" viewBox="0 0 13 8" fill="none" xmlns="http://www.w3.org/2000/svg">
<g id="dropdown.svg" clip-path="url(#clip0_1_395)">
<path id="Icon ionic-ios-arrow-down" d="M6.04445 5.36008L10.5844 0.820081C10.7455 0.660695 10.9629 0.571289 11.1894 0.571289C11.416 0.571289 11.6334 0.660695 11.7944 0.820081C11.9521 0.984018 12.0402 1.20263 12.0402 1.43008C12.0402 1.65753 11.9521 1.87614 11.7944 2.04008L6.65445 7.18008C6.49602 7.33284 6.28453 7.4182 6.06445 7.4182C5.84437 7.4182 5.63287 7.33284 5.47445 7.18008L0.294449 2.04008C0.214326 1.96101 0.150707 1.86681 0.107286 1.76296C0.0638638 1.6591 0.0415039 1.54765 0.0415039 1.43508C0.0415039 1.32251 0.0638638 1.21106 0.107286 1.10721C0.150707 1.00335 0.214326 0.909152 0.294449 0.830081C0.373519 0.749959 0.467717 0.68634 0.571574 0.642918C0.675432 0.599496 0.78688 0.577137 0.899449 0.577137C1.01202 0.577137 1.12347 0.599496 1.22732 0.642918C1.33118 0.68634 1.42538 0.749959 1.50445 0.830081L6.04445 5.36008Z" fill="black"/>
</g>
<defs>
<clipPath id="clip0_1_395">
<rect width="12" height="6.86" fill="white" transform="translate(0.0444336 0.570068)"/>
</clipPath>
</defs>
</svg>
