<svg width="131" height="43" viewBox="0 0 131 43" fill="none" xmlns="http://www.w3.org/2000/svg">
<g id="financial-times-blue-2.svg" clip-path="url(#clip0_1_63)">
<g id="Group 13254">
<path id="Path 11693" d="M0.125 42.7444H42.645V0.224365H0.125V42.7444ZM20.145 10.4644C19.475 8.32436 18.745 7.63437 14.975 7.63437H12.065C11.185 7.63437 10.995 7.82437 10.995 8.61437V14.6844H12.415C15.415 14.6844 16.055 14.1344 16.415 12.1244H17.145V18.9044H16.415C16.015 16.6444 14.885 16.0744 12.415 16.0744H10.985V22.4044C10.985 24.4144 11.525 24.6444 13.815 24.7344V25.4644H4.735V24.7144C6.625 24.6344 7.165 24.4044 7.165 22.3844V9.29436C7.165 7.28436 6.625 7.05437 4.795 6.97437V6.24437H20.845L20.945 10.4744H20.145V10.4644ZM38.385 10.4644C37.775 8.39437 36.875 7.63437 34.845 7.63437H32.475V22.3844C32.475 24.3944 32.995 24.6244 35.175 24.7144V25.4644H25.915V24.7344C28.075 24.6544 28.615 24.4244 28.615 22.4044V7.65437H26.255C24.245 7.65437 23.325 8.40437 22.715 10.4844H21.755L22.155 6.25437H38.995L39.355 10.4844H38.385V10.4644Z" fill="#02033B"/>
<path id="Path 11694" d="M52.005 17.9144C52.005 18.9144 52.285 18.9944 53.395 19.0344V19.3944H48.975V19.0344C49.895 18.9944 50.175 18.8744 50.175 17.9144V11.5444C50.175 10.5444 49.895 10.4644 49.025 10.4244V10.0644H56.835L56.875 12.1344H56.475C56.155 11.0944 55.795 10.7844 53.965 10.7844H52.535C52.095 10.7844 52.015 10.8644 52.015 11.2644V14.2144H53.615C55.085 14.2144 55.405 13.9344 55.565 12.9744H55.925V16.2844H55.565C55.365 15.1644 54.805 14.8944 53.615 14.8944H52.015V17.9244L52.005 17.9144ZM61.205 17.9144C61.205 18.9144 61.485 18.9944 62.595 19.0344V19.3944H57.985V19.0344C59.105 18.9944 59.375 18.8744 59.375 17.9144V11.5444C59.375 10.5444 59.135 10.4644 57.985 10.4244V10.0644H62.605V10.4244C61.485 10.4644 61.215 10.5844 61.215 11.5444V17.9144H61.205ZM72.235 11.7844C72.235 10.8644 71.995 10.5044 70.965 10.3944V10.0344H74.275V10.3944C73.235 10.5144 73.005 10.8744 73.005 11.7844V19.5944H72.525L66.155 12.2244V17.6444C66.155 18.5644 66.395 18.9244 67.425 19.0344V19.3944H64.115V19.0344C65.155 18.9144 65.385 18.5544 65.385 17.6444V11.3544C65.145 10.8444 64.665 10.4944 64.115 10.3944V10.0344H66.665L72.245 16.4844V11.7844H72.235ZM77.215 16.0444L78.605 12.3444L79.995 16.0444H77.215ZM83.905 19.3944V19.0344C83.185 19.0344 83.025 18.7544 82.665 17.8844L79.355 9.8344H78.915L75.495 18.1644C75.325 18.6644 74.865 19.0144 74.345 19.0444V19.4044H77.335V19.0444C76.695 19.0444 76.375 18.8844 76.375 18.4444C76.495 17.8544 76.665 17.2844 76.895 16.7344H80.285C80.535 17.2844 80.715 17.8544 80.845 18.4444C80.845 18.8844 80.485 19.0444 79.845 19.0444V19.4044H83.905V19.3944ZM92.985 11.7644C92.985 10.8444 92.745 10.4844 91.715 10.3744V10.0144H95.025V10.3744C93.985 10.4944 93.755 10.8544 93.755 11.7644V19.5744H93.275L86.915 12.2044V17.6244C86.915 18.5444 87.155 18.9044 88.185 19.0144V19.3744H84.875V19.0144C85.915 18.8944 86.145 18.5344 86.145 17.6244V11.3344C85.905 10.8244 85.425 10.4744 84.875 10.3744V10.0144H87.425L93.005 16.4644V11.7644H92.985ZM104.805 17.1844C104.015 18.7444 102.375 19.7044 100.625 19.6144C97.595 19.6144 95.765 17.6244 95.765 14.6344C95.795 11.9444 97.995 9.7844 100.685 9.8144H100.705C101.585 9.9144 102.455 10.1044 103.295 10.3744C103.575 10.3744 103.655 10.2144 103.895 9.8144H104.375L104.575 12.9244H104.175C103.805 11.4844 102.515 10.4544 101.025 10.4144C98.835 10.4144 97.875 12.8044 97.875 14.5944C97.875 17.1044 98.945 18.8144 101.305 18.8144C102.645 18.7644 103.865 18.0244 104.535 16.8644L104.815 17.1844H104.805ZM109.305 17.9044C109.305 18.9044 109.585 18.9844 110.695 19.0244V19.3844H106.085V19.0244C107.205 18.9844 107.475 18.8644 107.475 17.9044V11.5344C107.475 10.5344 107.195 10.4544 106.085 10.4144V10.0544H110.705V10.4144C109.585 10.4544 109.315 10.5744 109.315 11.5344V17.9044H109.305ZM114.515 16.0344L115.905 12.3344L117.295 16.0344H114.515ZM121.205 19.3844V19.0244C120.485 19.0244 120.325 18.7444 119.965 17.8744L116.655 9.8244H116.215L112.795 18.1544C112.625 18.6544 112.165 19.0044 111.645 19.0344V19.3944H114.635V19.0344C113.995 19.0344 113.675 18.8744 113.675 18.4344C113.795 17.8444 113.965 17.2744 114.195 16.7244H117.585C117.825 17.2744 118.015 17.8444 118.145 18.4344C118.145 18.8744 117.785 19.0344 117.145 19.0344V19.3944H121.205V19.3844ZM122.045 19.3844V19.0244C122.925 18.9844 123.195 18.8644 123.195 17.9044V11.5344C123.195 10.5344 122.915 10.4544 122.045 10.4144V10.0544H126.345V10.4144C125.305 10.4544 125.075 10.5744 125.075 11.5344V18.1044C125.075 18.6644 125.235 18.8644 126.275 18.8644C127.945 18.8644 128.945 18.5444 129.735 16.9144H130.095L129.455 19.4244H122.045V19.3844ZM50.985 34.1244C52.055 34.0844 52.295 33.9644 52.295 33.0044V25.8344H51.145C50.075 25.8344 49.635 26.2744 49.315 27.5444H48.915L49.155 25.1544H57.365L57.605 27.5444H57.205C56.885 26.2644 56.485 25.8344 55.375 25.8344H54.225V33.0044C54.225 34.0044 54.505 34.0844 55.545 34.1244V34.4844H51.045V34.1244H50.985ZM61.785 33.0044C61.785 34.0044 62.065 34.0844 63.175 34.1244V34.4844H58.555V34.1244C59.675 34.0844 59.945 33.9644 59.945 33.0044V26.6344C59.945 25.6344 59.665 25.5544 58.555 25.5144V25.1544H63.185V25.5144C62.065 25.5544 61.795 25.6744 61.795 26.6344V33.0044H61.785ZM72.975 25.1144H76.205V25.4744C75.325 25.5144 75.055 25.6344 75.055 26.5944V32.9644C75.055 33.9644 75.335 34.0444 76.205 34.0844V34.4444H71.975V34.0844C72.895 34.0444 73.175 33.9244 73.175 32.9644V26.3944H73.135L70.025 34.5644H69.585L66.515 26.3944H66.475V32.6844C66.475 33.6044 66.715 33.9644 67.745 34.0744V34.4344H64.435V34.0744C65.475 33.9544 65.705 33.5944 65.705 32.6844V26.3144C65.705 25.6744 65.425 25.4344 64.435 25.4344V25.0744H67.825L70.295 31.5644L72.965 25.1144H72.975ZM77.515 34.4744V34.1144C78.395 34.0744 78.665 33.9544 78.665 32.9944V26.6244C78.665 25.6244 78.385 25.5444 77.515 25.5044V25.1444H85.325L85.365 27.2144H84.965C84.645 26.1744 84.285 25.8644 82.455 25.8644H81.025C80.585 25.8644 80.505 25.9444 80.505 26.3444V29.2944H82.095C83.565 29.2944 83.885 29.0144 84.045 28.0544H84.405V31.3644H84.045C83.845 30.2444 83.285 30.0144 82.095 30.0144H80.505V33.2444C80.505 33.8044 80.665 34.0044 82.335 34.0044C84.005 34.0044 85.005 33.6844 85.795 32.0544H86.155L85.515 34.5644H77.505V34.4844H77.515V34.4744ZM87.395 31.5044H87.755C88.135 32.8644 89.295 33.8744 90.705 34.0544C91.515 34.1244 92.225 33.5344 92.295 32.7244V32.5044C92.295 30.3544 87.435 29.9544 87.435 27.2844C87.545 25.9044 88.715 24.8544 90.105 24.8944C90.955 24.9744 91.795 25.1344 92.615 25.3744C92.875 25.3744 93.085 25.1544 93.095 24.8944H93.455V27.8844H93.095C92.855 26.5944 91.775 25.6344 90.465 25.5344C89.755 25.4544 89.125 25.9544 89.035 26.6644V26.8544C89.035 28.7644 93.895 28.8044 93.895 32.1144C93.855 33.5844 92.625 34.7544 91.155 34.7144H90.985C89.355 34.7144 88.915 34.1544 88.275 34.1544C88.035 34.1544 87.875 34.3144 87.795 34.6344H87.315L87.395 31.5244V31.5044Z" fill="#02033B"/>
</g>
</g>
<defs>
<clipPath id="clip0_1_63">
<rect width="130" height="42.52" fill="white" transform="translate(0.125 0.224365)"/>
</clipPath>
</defs>
</svg>
