<svg width="131" height="47" viewBox="0 0 131 47" fill="none" xmlns="http://www.w3.org/2000/svg">
<g id="readers-digest-blue-2.svg" clip-path="url(#clip0_1_69)">
<g id="Group 4138">
<path id="Path 10716" fill-rule="evenodd" clip-rule="evenodd" d="M128.515 13.3544C128.595 10.8544 126.625 8.75442 124.125 8.67442H123.915C122.115 8.67442 120.225 9.67442 120.515 12.1744C120.695 13.7644 123.175 14.3344 124.515 14.7644C128.515 16.0144 130.095 17.5344 130.095 20.4944C130.095 23.4544 127.635 25.4944 123.245 25.4944C121.095 25.4944 118.705 25.0644 117.245 23.7444L116.735 19.4544H117.145C117.785 23.2744 119.435 24.7744 123.395 24.8744C125.925 24.9344 126.675 23.4944 126.665 21.7144C126.655 19.9344 124.735 19.1644 122.465 18.4144C119.215 17.4144 117.215 16.1344 117.215 13.0244C117.215 9.91442 119.965 7.90442 124.035 7.90442C125.715 7.95442 127.365 8.41442 128.835 9.24442V13.3144L128.515 13.3544Z" fill="#02033B"/>
<path id="Path 10717" fill-rule="evenodd" clip-rule="evenodd" d="M114.305 9.56436C115.015 9.08436 115.685 8.55436 116.305 7.95436C116.995 7.37436 117.435 6.55436 117.525 5.65436C117.525 5.48436 117.475 5.30436 117.375 5.16436C117.265 5.03436 117.095 4.96436 116.925 4.97436C116.715 5.01436 116.495 5.03436 116.285 5.04436C115.695 5.06436 115.115 4.82436 114.705 4.39436C114.295 3.94436 114.085 3.34436 114.125 2.73436C114.085 2.06436 114.325 1.41436 114.775 0.924361C115.255 0.444361 115.915 0.184361 116.595 0.224361C117.405 0.204361 118.185 0.544361 118.725 1.14436C119.265 1.75436 119.565 2.53436 119.595 3.34436C119.565 4.97436 118.895 6.52436 117.725 7.65436C116.795 8.58436 115.735 9.37436 114.575 9.99436L114.305 9.56436Z" fill="#02033B"/>
<path id="Path 10718" fill-rule="evenodd" clip-rule="evenodd" d="M77.295 33.4344V38.9944C77.295 40.6744 78.045 41.1944 78.775 41.1944C79.245 41.1644 79.695 41.0644 80.125 40.8744L80.235 41.2244C79.425 41.7344 78.495 42.0144 77.535 42.0444C76.745 42.0444 74.795 41.7644 74.795 39.8544V33.4344H73.255V32.8144H75.065L76.775 30.1544H77.295V32.8144H80.035V33.4444H77.295V33.4344Z" fill="#02033B"/>
<path id="Path 10719" fill-rule="evenodd" clip-rule="evenodd" d="M71.785 35.4544C71.835 34.1044 70.785 32.9744 69.435 32.9244H69.415H69.295C68.395 32.8144 67.565 33.4544 67.455 34.3644C67.455 34.3644 67.455 34.3744 67.455 34.3844C67.435 34.5244 67.435 34.6744 67.455 34.8144C67.555 35.6744 68.905 35.9844 69.635 36.2144C71.795 36.8944 72.635 37.7144 72.635 39.3144C72.635 40.9144 71.305 42.0344 68.935 42.0344C67.775 42.0944 66.635 41.7344 65.705 41.0344L65.425 38.7244H65.645C65.995 40.7844 66.885 41.5944 69.025 41.6544C69.845 41.8044 70.625 41.2644 70.785 40.4444C70.805 40.2744 70.805 40.1144 70.785 39.9444C70.785 38.9444 69.785 38.5744 68.515 38.1644C66.755 37.6044 65.675 36.9244 65.675 35.2544C65.675 33.5844 67.165 32.4844 69.355 32.4844C70.265 32.5144 71.155 32.7644 71.955 33.2044V35.4044L71.785 35.4544Z" fill="#02033B"/>
<path id="Path 10720" fill-rule="evenodd" clip-rule="evenodd" d="M110.575 8.22437C109.235 8.22437 107.575 8.96437 105.855 11.1344V8.22437L100.055 9.07437V9.55437C100.055 9.55437 101.335 9.40437 101.855 9.36437V23.1644C101.855 23.7344 101.765 24.4644 100.795 24.4644H99.855V25.1044H108.125V24.4744H107.125C106.495 24.5544 105.925 24.1044 105.845 23.4744C105.825 23.3644 105.825 23.2644 105.845 23.1544V13.5144C106.065 11.3944 107.395 10.1744 108.005 10.1644C109.175 10.1644 109.135 10.9944 110.175 11.4844C111.045 11.9144 112.095 11.5644 112.525 10.6944C112.625 10.4844 112.685 10.2544 112.695 10.0144C112.695 9.01437 112.015 8.25436 110.565 8.25436" fill="#02033B"/>
<path id="Path 10721" fill-rule="evenodd" clip-rule="evenodd" d="M32.825 8.84437C37.385 8.84437 37.195 14.8444 37.195 14.9044C37.235 15.2844 36.955 15.6344 36.575 15.6744C36.575 15.6744 36.565 15.6744 36.555 15.6744C36.495 15.6744 36.445 15.6744 36.385 15.6744H29.585C29.175 15.6944 28.815 15.3744 28.785 14.9644V14.8144C28.865 12.8144 29.395 8.81437 32.785 8.81437M29.515 16.4444H40.685C40.795 15.4444 40.745 14.4344 40.535 13.4444C40.335 12.3944 39.885 11.3944 39.225 10.5544C38.125 9.22437 36.205 8.22437 32.975 8.22437C27.125 8.22437 24.125 11.9544 24.125 17.0344C24.125 22.1144 26.815 25.6444 33.055 25.6444C37.195 25.6444 39.365 23.7044 40.475 20.9644L40.025 20.7444C38.565 23.6444 36.765 24.7444 33.895 24.7444C29.675 24.7444 28.795 20.7444 28.755 17.3844C28.755 17.3544 28.755 17.3144 28.755 17.2844C28.725 16.8644 29.035 16.4844 29.465 16.4544H29.575" fill="#02033B"/>
<path id="Path 10722" fill-rule="evenodd" clip-rule="evenodd" d="M59.875 32.8144C62.405 32.8144 62.315 36.0544 62.315 36.0644C62.325 36.2844 62.165 36.4644 61.955 36.4944H58.125C57.895 36.5044 57.695 36.3244 57.675 36.0944V36.0244C57.675 34.9144 58.005 32.8344 59.905 32.8244M58.095 37.0444H64.265C64.305 36.4944 64.265 35.9444 64.125 35.4044C64.015 34.8244 63.775 34.2744 63.405 33.8044C62.525 32.8544 61.245 32.3544 59.955 32.4744C57.445 32.2644 55.245 34.1344 55.035 36.6444C55.035 36.6444 55.035 36.6444 55.035 36.6544C55.015 36.8944 55.015 37.1444 55.035 37.3844C55.035 40.3144 56.515 42.1544 59.975 42.1544C61.795 42.3344 63.505 41.2544 64.125 39.5344L63.805 39.4144C63.275 40.8144 61.905 41.7144 60.405 41.6344C58.075 41.6344 57.655 39.4344 57.635 37.5544C57.615 37.3144 57.795 37.1044 58.035 37.0844" fill="#02033B"/>
<path id="Path 10723" fill-rule="evenodd" clip-rule="evenodd" d="M90.685 8.83436C95.235 8.83436 95.055 14.8844 95.055 14.9044C95.085 15.2944 94.795 15.6344 94.405 15.6744C94.345 15.6744 94.295 15.6744 94.235 15.6744H87.435C87.015 15.6944 86.665 15.3744 86.635 14.9544V14.8544C86.725 12.8544 87.255 8.85437 90.635 8.85437M87.355 16.4844H98.535C98.645 15.4844 98.585 14.4744 98.375 13.4844C98.205 12.4444 97.775 11.4544 97.125 10.6144C95.965 9.22437 94.065 8.22437 90.835 8.22437C84.995 8.22437 81.955 12.0044 81.955 17.0844C81.955 22.1644 84.635 25.6944 90.875 25.6944C95.025 25.6944 97.195 23.7544 98.305 21.0144L97.865 20.7944C96.395 23.6944 94.595 24.7944 91.725 24.7944C87.505 24.7944 86.625 20.7944 86.585 17.4344C86.585 17.4044 86.585 17.3644 86.585 17.3344C86.545 16.9144 86.855 16.5444 87.275 16.5044H87.295H87.405" fill="#02033B"/>
<path id="Path 10724" fill-rule="evenodd" clip-rule="evenodd" d="M9.545 12.3444H7.845C7.355 12.4044 6.905 12.0444 6.845 11.5544C6.845 11.5544 6.845 11.5544 6.845 11.5444V2.43442C7.545 2.32442 8.265 2.28442 8.975 2.30442C11.635 2.30442 14.685 3.15442 14.685 7.72442C14.685 11.1244 12.885 12.3444 9.525 12.3444M13.685 12.9244C16.825 12.4344 19.055 10.6744 19.035 7.40442C19.035 4.30442 17.315 1.65442 11.035 1.65442H0.125V2.22442H1.315C1.935 2.19442 2.465 2.66442 2.495 3.28442C2.495 3.36442 2.495 3.43442 2.495 3.51442V23.2244C2.595 23.8844 2.145 24.4944 1.495 24.6044H0.125V25.1444H9.345V24.6044H8.235C7.565 24.6844 6.955 24.2144 6.865 23.5444C6.845 23.4344 6.845 23.3144 6.865 23.2044V14.2044C6.865 14.2044 6.865 14.1744 6.865 14.1544C6.865 13.5744 7.095 13.1544 7.865 13.1544H9.125C11.125 13.1544 14.585 14.4544 15.605 19.9644C16.975 27.4144 23.405 29.0244 29.725 28.7544V28.4144C17.035 27.5244 23.555 13.8144 13.725 12.9144" fill="#02033B"/>
<path id="Path 10725" fill-rule="evenodd" clip-rule="evenodd" d="M42.185 31.6444C42.835 31.7244 43.435 31.2644 43.515 30.6144C43.515 30.6144 43.515 30.6044 43.515 30.5944V30.4844C43.545 29.8144 43.025 29.2544 42.355 29.2244C42.345 29.2244 42.335 29.2244 42.325 29.2244H42.185C41.515 29.1744 40.915 29.6744 40.855 30.3444V30.4444C40.855 31.1044 41.385 31.6544 42.045 31.6544C42.075 31.6544 42.095 31.6544 42.125 31.6544H42.235" fill="#02033B"/>
<path id="Path 10726" fill-rule="evenodd" clip-rule="evenodd" d="M43.855 41.4344C43.595 41.4244 43.385 41.2044 43.395 40.9344C43.395 40.9344 43.395 40.9344 43.395 40.9244V32.8644L39.865 33.4644L40.215 33.8544L40.825 33.7944V40.9044C40.855 41.1644 40.665 41.4044 40.405 41.4344H39.765V41.8644H44.685V41.4344H43.865H43.855Z" fill="#02033B"/>
<path id="Path 10727" fill-rule="evenodd" clip-rule="evenodd" d="M53.815 21.0944C53.815 23.3744 51.405 24.2344 50.215 24.0944C48.125 23.8744 47.295 22.2244 47.295 20.3244C47.135 18.8544 48.085 17.4944 49.525 17.1544C50.955 16.6044 52.985 15.9744 53.805 15.5144V21.0944H53.815ZM60.135 23.8944C59.785 24.2244 59.335 24.4344 58.855 24.4744C58.385 24.5144 57.965 24.1844 57.905 23.7144C57.855 22.8344 57.835 12.9844 57.835 12.9844C57.835 10.9844 56.565 8.21436 50.935 8.21436C46.665 8.21436 43.785 10.2144 43.655 12.1444C43.515 13.0244 44.125 13.8544 45.005 13.9944C45.115 14.0044 45.215 14.0044 45.325 13.9944H45.565C45.645 13.9844 45.715 13.9644 45.795 13.9344L45.955 13.8844C46.585 13.5444 47.015 12.9344 47.135 12.2244C47.515 9.90436 48.355 8.69436 50.825 8.77436C53.715 8.85436 53.825 10.4144 53.825 13.0544V13.4144C53.825 13.7244 53.635 14.8544 51.695 15.6444C49.955 16.0344 48.205 16.3444 46.435 16.5544C44.365 16.8744 42.865 18.7144 42.985 20.8044C42.985 23.3444 44.905 25.4544 48.385 25.5544C51.145 25.6344 52.715 24.1344 53.825 23.4044C54.145 24.5344 55.095 25.3844 56.255 25.5644C57.755 25.7744 59.275 25.3144 60.405 24.3144L60.135 23.8944Z" fill="#02033B"/>
<path id="Path 10728" fill-rule="evenodd" clip-rule="evenodd" d="M74.535 20.1444C74.585 20.7544 74.495 21.3644 74.265 21.9244C73.555 23.5744 72.035 24.0444 70.265 24.0444C66.945 24.0444 66.025 20.4844 66.025 16.5944C66.025 12.2744 67.025 9.27438 70.575 9.27438C72.135 9.20438 73.595 10.0744 74.265 11.4944C74.525 12.1844 74.625 12.9144 74.565 13.6444L74.535 20.1444ZM79.955 24.3944C78.875 24.3944 78.535 23.8644 78.535 22.9644V0.36438L71.875 1.08438V1.69438L74.535 1.53438V10.5344C73.655 9.15438 72.165 8.27438 70.535 8.18438C68.045 8.01438 65.585 8.86438 63.735 10.5444C61.955 12.2644 61.005 14.6744 61.125 17.1444C61.125 22.0344 63.705 25.4544 68.705 25.4544C70.855 25.4544 72.935 24.6644 74.535 23.2244V25.0244H80.535V24.3944H79.955Z" fill="#02033B"/>
<path id="Path 10729" fill-rule="evenodd" clip-rule="evenodd" d="M35.125 39.1044C35.265 40.2044 34.495 41.2044 33.405 41.3444C33.165 41.3744 32.925 41.3644 32.695 41.3144C30.815 41.3144 30.295 39.3144 30.295 37.0944C30.295 34.6544 30.855 32.9544 32.865 32.9544C33.765 32.8944 34.615 33.4044 34.995 34.2244C35.125 34.6044 35.175 35.0244 35.125 35.4244V39.1044ZM38.195 41.5144C37.585 41.5144 37.385 41.2144 37.385 40.7044V27.9044L33.615 28.3044V28.6544L35.125 28.5644V33.6344C34.625 32.8544 33.785 32.3544 32.865 32.3044C31.455 32.2144 30.065 32.6944 29.015 33.6444C27.995 34.6244 27.455 35.9944 27.525 37.4044C27.525 40.1744 28.995 42.1044 31.825 42.1044C33.045 42.1044 34.225 41.6444 35.125 40.8144V41.8144H38.505V41.4544H38.195V41.5144Z" fill="#02033B"/>
<path id="Path 10730" fill-rule="evenodd" clip-rule="evenodd" d="M49.725 38.2244C48.615 38.2244 47.985 37.3244 47.915 35.7244C47.845 34.1244 48.755 33.2744 49.645 33.2744C50.455 33.2744 51.375 33.8244 51.345 35.7244C51.345 37.2644 50.855 38.2144 49.705 38.2244M49.825 41.9044C51.685 41.9044 52.705 42.3244 52.645 43.6944C52.655 44.9644 51.635 46.0044 50.365 46.0244C50.265 46.0244 50.175 46.0244 50.075 46.0244C48.395 46.0244 47.365 45.1344 47.325 43.6244C47.305 43.1344 47.525 42.6544 47.925 42.3644C48.485 41.9844 49.175 41.8344 49.845 41.9244M52.845 32.4644C53.485 32.4644 53.465 32.9244 54.035 33.1944C54.515 33.4144 55.085 33.2244 55.335 32.7644C55.395 32.6444 55.425 32.5144 55.435 32.3744C55.435 31.8144 55.055 31.3744 54.255 31.3744C53.205 31.4744 52.255 32.0544 51.685 32.9444C51.085 32.7244 50.455 32.6144 49.815 32.6044C46.875 32.6044 45.665 33.7744 45.685 35.7044C45.675 37.0944 46.665 38.2844 48.025 38.5344C46.925 38.6844 46.025 39.3244 46.025 40.0844C46.025 41.1744 47.465 41.6744 48.295 41.7344C47.495 41.8144 45.735 41.8544 45.615 43.7344C45.495 45.6144 47.485 46.6444 49.705 46.6644C53.345 46.6644 54.765 45.0644 54.765 42.9644C54.765 40.8644 53.015 40.2144 51.035 40.2144H49.265C47.955 40.2144 47.555 39.7744 47.555 39.4544C47.555 38.9244 48.145 38.7044 48.395 38.6244C48.645 38.5444 49.395 38.6844 49.615 38.6844C51.405 38.6844 53.615 37.9544 53.615 35.6844C53.605 35.2544 53.505 34.8244 53.325 34.4344L53.235 34.2644C53.165 34.1544 53.085 34.0544 53.005 33.9544L52.895 33.8344L52.545 33.4944C52.375 33.3744 52.205 33.2544 52.025 33.1444C52.185 32.8044 52.485 32.5544 52.845 32.4544" fill="#02033B"/>
</g>
</g>
<defs>
<clipPath id="clip0_1_69">
<rect width="130" height="46.52" fill="white" transform="translate(0.125 0.224365)"/>
</clipPath>
</defs>
</svg>
